<svg width="41" height="31" viewBox="0 0 41 31" fill="none" xmlns="http://www.w3.org/2000/svg">
<path d="M39.9246 6.4541C38.6506 6.53089 37.3919 6.77193 36.1796 7.17123C34.9471 7.51715 33.7473 7.97041 32.594 8.52581C31.4296 9.02482 30.3322 9.66722 29.327 10.4381C28.3008 11.147 27.3408 11.947 26.4585 12.8286C25.5696 13.7545 24.7443 14.7394 23.9884 15.7768C23.2751 16.8196 22.6361 17.9112 22.076 19.0437C21.5552 20.2116 21.1029 21.4089 20.7215 22.6294C20.4058 23.8618 20.1663 25.1125 20.0043 26.3744C19.9199 25.1013 19.6791 23.8435 19.2872 22.6294C18.9413 21.3969 18.488 20.1971 17.9326 19.0437C17.4336 17.8794 16.7912 16.7819 16.0203 15.7768C15.2919 14.7405 14.4932 13.7554 13.6298 12.8286C12.703 11.9652 11.7179 11.1665 10.6816 10.4381C9.67647 9.66722 8.579 9.02482 7.41468 8.52581C6.27257 7.94458 5.07016 7.49034 3.82902 7.17123C2.61677 6.77193 1.35801 6.53089 0.0840036 6.4541C0.0840036 7.17123 0.0043223 7.88836 0.0043223 8.60549C-0.0264515 10.0766 0.107179 11.5465 0.402729 12.9879C0.551182 13.7143 0.737357 14.4324 0.960498 15.1393C1.12782 15.8527 1.36813 16.5469 1.67763 17.2111C1.93625 17.8893 2.22878 18.5542 2.55412 19.2031L3.66966 21.1154L5.02424 22.8684L6.45851 24.462L8.05213 25.976L9.80512 27.2509C10.4426 27.729 11.08 28.0477 11.7175 28.4461L13.7095 29.4023L15.7015 30.1194L17.8529 30.6772L20.0043 30.9959L22.1557 30.6772L24.3071 30.1194L26.3788 29.4023L28.3709 28.4461L30.2035 27.2509L31.9565 25.976C32.5257 25.5129 33.0584 25.0067 33.5501 24.462C34.0948 23.9703 34.6009 23.4376 35.0641 22.8684L36.339 21.1154C36.7374 20.478 37.1358 19.8405 37.4545 19.2031L38.4107 17.2111L39.1278 15.1393C39.3251 14.4312 39.4847 13.713 39.6059 12.9879C39.7511 12.2771 39.8575 11.5589 39.9246 10.8365C40.0321 10.098 40.0588 9.34987 40.0043 8.60549C40.0175 7.88744 39.9909 7.16921 39.9246 6.4541Z" fill="url(#paint0_linear_4115_610)"/>
<path d="M25.0244 5.09961C25.0405 5.44685 25.0138 5.79477 24.9447 6.13546C24.875 6.49094 24.7681 6.83813 24.626 7.17132L24.1479 8.04781L23.5104 8.84462L22.7136 9.48207L21.7574 9.96015L20.8013 10.2788H18.7295L17.6937 9.96015L16.8172 9.48207L16.0204 8.84462L15.3033 8.04781L14.8252 7.17132L14.5064 6.13546C14.5064 5.81674 14.4268 5.49801 14.4268 5.09961C14.4268 4.7012 14.5064 4.46216 14.5064 4.14343C14.5064 3.82471 14.7455 3.4263 14.8252 3.10757L15.3033 2.23108L16.0204 1.43427C16.249 1.17933 16.5183 0.963936 16.8172 0.796816L17.6937 0.318725L18.7295 0H20.8013L21.7574 0.318725L22.7136 0.796816L23.5104 1.43427L24.1479 2.23108L24.626 3.10757C24.7789 3.43673 24.8861 3.78524 24.9447 4.14343C25.0105 4.45767 25.0372 4.77882 25.0244 5.09961Z" fill="#EB662B"/>
<defs>
<linearGradient id="paint0_linear_4115_610" x1="6.50516" y1="10.1352" x2="23.3076" y2="35.221" gradientUnits="userSpaceOnUse">
<stop stop-color="#EB662B"/>
<stop offset="1" stop-color="#F28555"/>
</linearGradient>
</defs>
</svg>
