<svg width="991" height="190" viewBox="0 0 991 190" fill="none" xmlns="http://www.w3.org/2000/svg">
<g clip-path="url(#clip0_4109_4)">
<path d="M243.79 40.9272C236.235 41.3826 228.772 42.8119 221.583 45.1797C214.274 47.231 207.16 49.9187 200.321 53.2122C193.416 56.1712 186.909 59.9806 180.948 64.5519C174.863 68.7556 169.17 73.4995 163.938 78.7272C158.667 84.2177 153.773 90.058 149.291 96.2096C145.061 102.393 141.272 108.866 137.95 115.582C134.862 122.507 132.18 129.607 129.918 136.845C128.046 144.153 126.626 151.569 125.666 159.052C125.165 151.503 123.737 144.044 121.413 136.845C119.362 129.536 116.674 122.421 113.381 115.582C110.422 108.678 106.612 102.17 102.041 96.2096C97.7217 90.0645 92.9856 84.223 87.8657 78.7272C82.3699 73.6074 76.5284 68.8712 70.3833 64.5519C64.423 59.9806 57.9152 56.1712 51.011 53.2122C44.2384 49.7656 37.1083 47.072 29.7485 45.1797C22.56 42.8119 15.0958 41.3826 7.5411 40.9272C7.5411 45.1797 7.0686 49.4322 7.0686 53.6847C6.88612 62.4083 7.67852 71.1246 9.43109 79.6719C10.3114 83.9793 11.4154 88.2375 12.7386 92.4294C13.7308 96.6597 15.1558 100.776 16.9911 104.715C18.5247 108.736 20.2593 112.679 22.1885 116.527L28.8035 127.867L36.836 138.262L45.341 147.712L54.7909 156.689L65.1859 164.249C68.9661 167.084 72.7458 168.974 76.5261 171.337L88.3383 177.007L100.151 181.259L112.908 184.567L125.666 186.457L138.423 184.567L151.181 181.259L163.465 177.007L175.278 171.337L186.145 164.249L196.54 156.689C199.916 153.943 203.075 150.942 205.99 147.712C209.22 144.796 212.221 141.637 214.968 138.262L222.528 127.867C224.89 124.087 227.253 120.307 229.143 116.527L234.813 104.715L239.065 92.4294C240.235 88.2304 241.182 83.9716 241.9 79.6719C242.761 75.4569 243.392 71.1981 243.79 66.9144C244.428 62.5352 244.586 58.0987 244.263 53.6847C244.341 49.4267 244.183 45.1677 243.79 40.9272Z" fill="url(#paint0_linear_4109_4)"/>
<path d="M155.434 32.8952C155.53 34.9543 155.371 37.0174 154.961 39.0376C154.548 41.1456 153.914 43.2044 153.072 45.1801L150.237 50.3776L146.456 55.1026L141.731 58.8826L136.061 61.7175L130.392 63.6073H118.106L111.964 61.7175L106.767 58.8826L102.042 55.1026L97.7893 50.3776L94.9543 45.1801L93.0638 39.0376C93.0638 37.1477 92.5918 35.2577 92.5918 32.8952C92.5918 30.5327 93.0638 29.1152 93.0638 27.2252C93.0638 25.3352 94.4816 22.9727 94.9543 21.0827L97.7893 15.8852L102.042 11.1603C103.397 9.64851 104.994 8.37127 106.767 7.38028L111.964 4.54527L118.106 2.65527H130.392L136.061 4.54527L141.731 7.38028L146.456 11.1603L150.237 15.8852L153.072 21.0827C153.978 23.0346 154.614 25.1012 154.961 27.2252C155.352 29.0886 155.51 30.993 155.434 32.8952Z" fill="#EB662B"/>
<path d="M292.181 147.554L264.547 70.945H293.002L310.057 121.653H312.975L330.03 70.945H358.576L330.85 147.554H292.181ZM380.367 147.554V70.945H407.91V147.554H380.367ZM469.833 150.108C442.381 150.017 429.887 141.809 430.708 121.288H455.423C455.606 125.848 459.436 128.493 469.833 128.676C478.771 128.767 482.601 126.395 482.601 123.659C482.601 122.2 482.236 119.647 475.305 118.735L465.273 117.184C450.863 114.904 432.44 113.901 432.44 93.2893C432.44 77.8763 444.753 68.3913 470.107 68.3913C492.724 68.3913 508.502 74.2282 507.864 97.0286H483.24C482.419 92.5597 478.497 89.8237 469.468 89.8237C461.716 89.8237 458.889 92.0125 458.889 94.7486C458.889 96.0254 459.527 98.579 464.726 99.3998L472.751 100.677C488.164 103.23 510.053 102.957 510.053 124.845C510.053 141.991 496.92 150.199 469.833 150.108ZM533.004 147.554V70.945H560.547V147.554H533.004ZM666.611 70.945V93.9278H639.433V147.554H611.799V93.9278H584.713V70.945H666.611ZM690.664 147.554V70.945H761.163V92.9245H718.207V100.403H759.521V118.096H718.207V125.483H761.163V147.554H690.664ZM782.51 147.554L808.776 109.341V107.973L783.24 70.945H812.789L824.827 89.9149H827.472L839.42 70.945H869.06L843.706 107.973V109.341L869.698 147.554H839.784L827.472 127.49H824.827L812.515 147.554H782.51ZM970.808 70.945V93.9278H943.63V147.554H915.996V93.9278H888.909V70.945H970.808Z" fill="#EB662B"/>
</g>
<defs>
<linearGradient id="paint0_linear_4109_4" x1="45.6176" y1="62.7558" x2="145.254" y2="211.511" gradientUnits="userSpaceOnUse">
<stop stop-color="#EB662B"/>
<stop offset="1" stop-color="#F28555"/>
</linearGradient>
<clipPath id="clip0_4109_4">
<rect width="990.286" height="189.755" fill="white" transform="translate(0.0429688)"/>
</clipPath>
</defs>
</svg>
